<svg xmlns="http://www.w3.org/2000/svg" viewBox="0 0 368.27 368.27"><defs><style>.cls-1{fill:#fdfdfd;}.cls-2{fill:#010101;}</style></defs><g id="Layer_2" data-name="Layer 2"><g id="Desk"><path class="cls-1" d="M368.2,188.08q0,88.62.07,177.25c0,2.46-.49,2.94-2.94,2.94q-181.2-.12-362.39,0c-2.46,0-2.94-.48-2.94-2.94Q.12,184.13,0,2.94C0,.48.48,0,2.94,0Q184.13.12,365.33,0c2.45,0,2.94.48,2.94,2.94q-.13,90.42-.07,180.83c-1.05-2.44-2.94-4.14-4.94-5.79-15-12.43-30-24.91-45-37.29a6.25,6.25,0,0,1-2.51-5.44q.12-43.77.05-87.54c0-7-2.54-9.49-9.51-9.51q-19.56,0-39.11,0c-7.33,0-9.68,2.33-9.69,9.58,0,12.8,0,25.6,0,38.39,0,1,.44,2.14-.45,3.06-1.36-.35-2.18-1.44-3.17-2.26-17-14.17-33.9-28.4-50.94-42.5-11.2-9.28-25.48-9.24-36.75-.06-6,4.91-12,9.92-17.93,14.9Q76.57,119,4.93,178.66c-5.13,4.27-5.46,8.05-1.23,13.17q5.7,6.91,11.51,13.75c4.25,5,8.11,5.35,13.22,1.1q75.75-63.15,151.49-126.31c4.59-3.83,4.55-3.83,9-.09L340.72,206.82c4.9,4.08,8.85,3.76,12.94-1.12C358.55,199.86,363.36,194,368.2,188.08ZM315.79,261.6c0-17.81,0-35.63,0-53.45a6.25,6.25,0,0,0-2.55-5.44Q250.55,151.13,188,99.35c-2.73-2.26-4.27-2.22-7,0Q118.57,151.07,56,202.5a6.93,6.93,0,0,0-2.81,6q.12,52.2.06,104.4c0,11.2,5.82,17.08,17,17.08,27.15,0,54.29,0,81.44.08,3,0,3.75-.73,3.74-3.71-.12-26.79,0-53.57-.13-80.36,0-2.74.57-3.61,3.48-3.58q25.83.23,51.66,0c3,0,3.45,1,3.44,3.63-.09,26.79,0,53.57-.13,80.36,0,3,.87,3.68,3.79,3.67,27-.12,54.05-.07,81.07-.08,11.47,0,17.27-5.76,17.28-17.12Q315.81,287.25,315.79,261.6Z"/><path class="cls-2" d="M368.2,188.08c-4.84,5.88-9.65,11.78-14.54,17.62-4.09,4.88-8,5.2-12.94,1.12L189,80.28c-4.49-3.74-4.45-3.74-9,.09Q104.19,143.54,28.43,206.68c-5.11,4.25-9,3.93-13.22-1.1Q9.42,198.72,3.7,191.83c-4.23-5.12-3.9-8.9,1.23-13.17Q76.56,119,148.21,59.31c6-5,11.91-10,17.93-14.9,11.27-9.18,25.55-9.22,36.75.06,17,14.1,34,28.33,50.94,42.5,1,.82,1.81,1.91,3.17,2.26.89-.92.44-2,.45-3.06,0-12.79,0-25.59,0-38.39,0-7.25,2.36-9.57,9.69-9.58q19.56,0,39.11,0c7,0,9.5,2.56,9.51,9.51q0,43.77-.05,87.54a6.25,6.25,0,0,0,2.51,5.44c15,12.38,30,24.86,45,37.29,2,1.65,3.89,3.35,4.94,5.79Z"/><path class="cls-2" d="M315.79,261.6q0,25.65,0,51.3c0,11.36-5.81,17.12-17.28,17.12-27,0-54,0-81.07.08-2.92,0-3.8-.63-3.79-3.67.13-26.79,0-53.57.13-80.36,0-2.66-.45-3.66-3.44-3.63q-25.83.24-51.66,0c-2.91,0-3.49.84-3.48,3.58.1,26.79,0,53.57.13,80.36,0,3-.77,3.72-3.74,3.71C124.44,330,97.3,330,70.15,330c-11.13,0-17-5.88-17-17.08q0-52.2-.06-104.4a6.93,6.93,0,0,1,2.81-6Q118.56,151,181,99.38c2.71-2.25,4.25-2.29,7,0q62.55,51.81,125.31,103.36a6.25,6.25,0,0,1,2.55,5.44C315.75,226,315.79,243.79,315.79,261.6Z"/></g></g></svg>