<svg width="35" height="35" viewBox="0 0 35 35" fill="none" xmlns="http://www.w3.org/2000/svg">
<circle cx="17.5" cy="17.5" r="17.5" fill="#83C4FD"/>
<path d="M23.7692 28.0075H10.2308C9.10878 28.0075 8.03267 27.5618 7.23925 26.7684C6.44583 25.975 6.00009 24.8989 6.00009 23.7768V11.9307C6.00009 11.7063 6.08924 11.491 6.24792 11.3324C6.40661 11.1737 6.62183 11.0845 6.84624 11.0845H23.7692C24.8913 11.0845 25.9674 11.5303 26.7608 12.3237C27.5543 13.1171 28 14.1932 28 15.3153V23.7768C28 24.8989 27.5543 25.975 26.7608 26.7684C25.9674 27.5618 24.8913 28.0075 23.7692 28.0075ZM7.69239 12.7768V23.7768C7.69239 24.45 7.95984 25.0957 8.43589 25.5717C8.91194 26.0478 9.5576 26.3152 10.2308 26.3152H23.7692C24.4425 26.3152 25.0882 26.0478 25.5642 25.5717C26.0403 25.0957 26.3077 24.45 26.3077 23.7768V15.3153C26.3077 14.642 26.0403 13.9964 25.5642 13.5203C25.0882 13.0443 24.4425 12.7768 23.7692 12.7768H7.69239Z" fill="black"/>
<path d="M25.4615 12.7768C25.2371 12.7768 25.0219 12.6877 24.8632 12.529C24.7045 12.3703 24.6154 12.1551 24.6154 11.9307V9.60375C24.6316 9.30734 24.5807 9.01109 24.4664 8.73711C24.3521 8.46313 24.1774 8.21849 23.9554 8.02145C23.7559 7.87198 23.525 7.76992 23.2801 7.72301C23.0353 7.67609 22.783 7.68556 22.5423 7.75068L8.35239 10.9745C8.16152 11.0175 7.99144 11.1253 7.8711 11.2796C7.75077 11.4339 7.68761 11.6251 7.69239 11.8207C7.69239 12.0451 7.60325 12.2603 7.44456 12.419C7.28588 12.5777 7.07066 12.6668 6.84624 12.6668C6.62183 12.6668 6.40661 12.5777 6.24793 12.419C6.08924 12.2603 6.00009 12.0451 6.00009 11.8207C5.99513 11.2422 6.18787 10.6794 6.54641 10.2255C6.90495 9.77156 7.40777 9.45369 7.97162 9.32452L22.17 6.10069C22.6583 5.97722 23.1684 5.96716 23.6612 6.0713C24.154 6.17543 24.6165 6.39099 25.0131 6.70146C25.4325 7.05738 25.7665 7.50297 25.9906 8.00531C26.2147 8.50765 26.323 9.05392 26.3077 9.60375V11.9307C26.3077 12.1551 26.2186 12.3703 26.0599 12.529C25.9012 12.6877 25.686 12.7768 25.4615 12.7768Z" fill="black"/>
<path d="M27.1538 22.9306H21.2308C20.3331 22.9306 19.4723 22.574 18.8375 21.9393C18.2028 21.3045 17.8462 20.4437 17.8462 19.546C17.8462 18.6484 18.2028 17.7875 18.8375 17.1527C19.4723 16.518 20.3331 16.1614 21.2308 16.1614H27.1538C27.3783 16.1614 27.5935 16.2506 27.7522 16.4092C27.9108 16.5679 28 16.7831 28 17.0076V22.0845C28 22.3089 27.9108 22.5241 27.7522 22.6828C27.5935 22.8415 27.3783 22.9306 27.1538 22.9306ZM21.2308 17.8537C20.782 17.8537 20.3515 18.032 20.0342 18.3494C19.7168 18.6667 19.5385 19.0972 19.5385 19.546C19.5385 19.9948 19.7168 20.4253 20.0342 20.7426C20.3515 21.06 20.782 21.2383 21.2308 21.2383H26.3077V17.8537H21.2308Z" fill="black"/>
</svg>
