<svg width="72" height="64" viewBox="0 0 72 64" fill="none" xmlns="http://www.w3.org/2000/svg">
<path d="M2.13482 50.5059C8.93482 48.9059 14.6348 45.8392 16.6348 44.5059C26.4682 43.6726 42.7348 44.3059 29.1348 53.5059C12.1348 65.0059 -6.36518 52.5059 2.13482 50.5059Z" fill="#FED700"/>
<path d="M53.8398 10.4715C51.1099 17.4365 46.5521 23.0763 44.6144 25.0256C42.6139 35.2679 41.951 52.4426 55.3028 39.2029C71.9924 22.6532 57.2522 1.76517 53.8398 10.4715Z" fill="#FED700"/>
<path d="M29.6348 9.00592L67.6346 35.5196L42.6348 55.0196L4.63477 27.0059L29.6348 9.00592Z" fill="#FED700"/>
<path d="M4.63473 27.0059L42.6348 55.0059L42.1348 63.006L4.63468 35.506L4.63473 27.0059Z" fill="#FED700"/>
<path d="M42.6346 55.0059L67.6347 35.5059L67.6348 43.0059L42.1347 63.0059L42.6346 55.0059Z" fill="#FED700"/>
</svg>
