<svg width="39" height="39" viewBox="0 0 39 39" fill="none" xmlns="http://www.w3.org/2000/svg">
<path d="M19.5 0.5C22.0196 0.5 24.4359 1.50089 26.2175 3.28249C27.9991 5.06408 29 7.48044 29 10C29 12.5196 27.9991 14.9359 26.2175 16.7175C24.4359 18.4991 22.0196 19.5 19.5 19.5C16.9804 19.5 14.5641 18.4991 12.7825 16.7175C11.0009 14.9359 10 12.5196 10 10C10 7.48044 11.0009 5.06408 12.7825 3.28249C14.5641 1.50089 16.9804 0.5 19.5 0.5ZM19.5 24.25C29.9975 24.25 38.5 28.5012 38.5 33.75V38.5H0.5V33.75C0.5 28.5012 9.0025 24.25 19.5 24.25Z" fill="black"/>
</svg>
