<svg width="40" height="40" viewBox="0 0 40 40" fill="none" xmlns="http://www.w3.org/2000/svg">
<circle cx="20" cy="20" r="20" fill="#2B3245"/>
<rect x="8" y="8" width="24" height="24" rx="1" fill="#E2E2E2"/>
<path d="M18.7361 9.46653H17.8934V10.3092H18.7361V9.46653Z" fill="black"/>
<path d="M20.4214 9.46653H19.579V10.3092H20.4214V9.46653Z" fill="black"/>
<path d="M15.3654 9.46653H9.46655V15.3653H15.3654V9.46653ZM14.5227 14.5227H10.3092V10.3092H14.5227V14.5227Z" fill="black"/>
<path d="M17.0507 10.3092H16.208V11.1519H17.0507V10.3092Z" fill="black"/>
<path d="M19.5788 10.3092H18.7361V11.1519H19.5788V10.3092Z" fill="black"/>
<path d="M22.9496 10.3092H20.4215V11.1519H22.9496V10.3092Z" fill="black"/>
<path d="M24.6349 15.3653H30.5337V9.46653H24.6349V15.3653ZM25.4778 10.3092H29.6913V14.5227H25.4778V10.3092Z" fill="black"/>
<path d="M13.6799 11.1519H11.1519V13.68H13.6799V11.1519Z" fill="#BC3845"/>
<path d="M17.8934 15.3653H17.0509V14.5227H17.8934V15.3653H18.7361V11.1519H17.0509V11.9946H17.8934V13.68H16.208V16.208H17.8934V15.3653Z" fill="black"/>
<path d="M20.4214 11.1519H19.579V12.8373H20.4214V11.1519Z" fill="black"/>
<path d="M20.4215 12.8373V13.68H22.9496V16.208H23.7923V11.1519H22.9496V12.8373H20.4215Z" fill="black"/>
<path d="M28.8484 11.1519H26.3206V13.68H28.8484V11.1519Z" fill="#BC3845"/>
<path d="M19.579 15.3653H18.7361V16.208H20.4215V13.68H19.579V15.3653Z" fill="black"/>
<path d="M22.1068 14.5227H21.2642V15.3653H22.1068V14.5227Z" fill="black"/>
<path d="M13.68 20.4215V18.7361H12.8376V17.8934H13.68V18.7361H15.3654V17.8934H14.5227V17.0507H15.3654V17.8934H16.2081V19.5788H17.051V17.0507H16.2081V16.208H12.8376V17.0507H9.46655V17.8934H10.3092V18.7361H11.9946V19.5788H12.8376V22.1068H13.68V21.2642H14.5227V20.4215H13.68Z" fill="black"/>
<path d="M21.2642 17.0507V17.8934H22.1069V16.208H20.4215V17.0507H21.2642Z" fill="black"/>
<path d="M25.4778 17.8934H27.163V17.0507H26.3205V16.208H24.6349V17.0507H25.4778V17.8934Z" fill="black"/>
<path d="M29.6911 16.208H28.8484V17.0507H29.6911V16.208Z" fill="black"/>
<path d="M20.4215 17.0507H18.7361V17.8934H20.4215V17.0507Z" fill="black"/>
<path d="M30.5337 17.0507H29.6913V17.8934H30.5337V17.0507Z" fill="black"/>
<path d="M28.8483 17.8934H28.0059V19.5788H29.6912V21.2642H30.5337V18.7361H28.8483V17.8934Z" fill="black"/>
<path d="M18.7361 18.7361H17.8934V19.5788H18.7361V18.7361Z" fill="black"/>
<path d="M19.579 18.7361V19.5788H20.4214V20.4215H22.1068V19.5788H22.9495V18.7361H19.579Z" fill="black"/>
<path d="M10.3092 19.5788H9.46655V21.2639H10.3092V19.5788Z" fill="black"/>
<path d="M11.9945 19.5788H11.1519V20.4215H11.9945V19.5788Z" fill="black"/>
<path d="M17.051 21.2642V20.4215H16.2081V19.5788H14.5227V20.4215H15.3654V21.2642H16.2081V22.1068H17.8935V21.2642H17.051Z" fill="black"/>
<path d="M17.8933 19.5788H17.0509V20.4215H17.8933V19.5788Z" fill="black"/>
<path d="M23.792 19.5788H22.9496V20.4215H23.792V19.5788Z" fill="black"/>
<path d="M28.0057 19.5788H27.163V20.4215H28.0057V19.5788Z" fill="black"/>
<path d="M18.7361 20.4215H17.8934V21.2639H18.7361V20.4215Z" fill="black"/>
<path d="M15.3651 21.2642H14.5227V22.1068H15.3651V21.2642Z" fill="black"/>
<path d="M17.8934 22.1068V22.9495H18.7361V23.7922H19.5791V24.6349H21.2642V22.9495H19.5791V22.1068H20.4215V21.2642H18.7361V22.1068H17.8934Z" fill="black"/>
<path d="M15.3654 22.1068V22.9495H14.5227V23.7922H16.2081V22.1068H15.3654Z" fill="black"/>
<path d="M28.8483 22.1068H28.0059V22.9495H28.8483V22.1068Z" fill="black"/>
<path d="M11.1519 22.9495H9.46655V23.792H11.1519V22.9495Z" fill="black"/>
<path d="M13.68 22.9495H12.8375V23.792H13.68V22.9495Z" fill="black"/>
<path d="M17.8933 22.9495H17.0509V23.792H17.8933V22.9495Z" fill="black"/>
<path d="M29.6911 22.9495H28.8484V23.792H29.6911V22.9495Z" fill="black"/>
<path d="M18.7361 23.7922H17.8934V24.6349H18.7361V23.7922Z" fill="black"/>
<path d="M25.4778 19.5788H26.3205V18.7361H24.6349V17.0507H23.7922V19.5788H24.6349V22.1068H22.9495V21.2642H21.2641V22.9495H22.9495V24.6349H21.2641V25.4776H17.0509V23.7922H16.2083V27.163H17.0509V28.8484H17.8934V26.3203H18.7361V27.1627H19.5788V26.3203H22.1068V25.4776H22.9495V26.3203H22.1068V27.1627H22.9495V28.0052H23.7922V28.8484H22.9495V29.691H23.7922V30.5337H27.163V29.6913H24.6349V27.1627H27.163V22.9495H25.4776V22.1068H28.0056V21.2642H27.163V20.4215H25.4776V19.5788H25.4778ZM26.3205 23.7922V26.3203H23.7922V23.7922H26.3205Z" fill="black"/>
<path d="M28.8483 23.7922H28.0059V24.6349H28.8483V23.7922Z" fill="black"/>
<path d="M30.5337 23.7922H29.6913V24.6349H30.5337V23.7922Z" fill="black"/>
<path d="M25.4776 24.6349H24.6349V25.4774H25.4776V24.6349Z" fill="black"/>
<path d="M9.46655 30.5337H15.3654V24.6349H9.46655V30.5337ZM10.3092 25.4776H14.5227V29.6913H10.3092V25.4776V25.4776Z" fill="black"/>
<path d="M30.5337 25.4776H28.0059V26.3203H30.5337V25.4776Z" fill="black"/>
<path d="M13.6799 26.3203H11.1519V28.8483H13.6799V26.3203Z" fill="#BC3845"/>
<path d="M21.2642 28.8483H20.4215V28.0054H19.5791V28.8483H17.8934V29.6913H19.5791V30.5337H21.2642V29.6913H22.1069V27.1627H21.2642V28.8483Z" fill="black"/>
<path d="M28.8483 27.1627H28.0059V29.6913H28.8483V30.5337H30.5337V29.6913H29.6912V28.0054H28.8483V27.1627Z" fill="black"/>
<path d="M30.5337 27.1627H29.6913V28.0052H30.5337V27.1627Z" fill="black"/>
<path d="M17.8933 29.6913H17.0509V30.5337H17.8933V29.6913Z" fill="black"/>
</svg>
