<svg width="24" height="24" viewBox="0 0 24 24" fill="none" xmlns="http://www.w3.org/2000/svg">
<rect width="24" height="24" rx="1" fill="#E2E2E2"/>
<path d="M10.7361 1.46653H9.89343V2.30922H10.7361V1.46653Z" fill="black"/>
<path d="M12.4214 1.46653H11.579V2.30922H12.4214V1.46653Z" fill="black"/>
<path d="M7.36537 1.46653H1.46655V7.36535H7.36537V1.46653ZM6.52268 6.52266H2.30924V2.30922H6.52268V6.52266Z" fill="black"/>
<path d="M9.0507 2.30921H8.20801V3.1519H9.0507V2.30921Z" fill="black"/>
<path d="M11.5788 2.30921H10.7361V3.1519H11.5788V2.30921Z" fill="black"/>
<path d="M14.9496 2.30921H12.4215V3.1519H14.9496V2.30921Z" fill="black"/>
<path d="M16.6349 7.36535H22.5337V1.46653H16.6349V7.36535ZM17.4778 2.30922H21.6913V6.52266H17.4778V2.30922Z" fill="black"/>
<path d="M5.67992 3.1519H3.15186V5.67996H5.67992V3.1519Z" fill="#BC3845"/>
<path d="M9.89338 7.36534H9.05094V6.52265H9.89338V7.36534H10.7361V3.1519H9.05094V3.99459H9.89338V5.67996H8.20801V8.20803H9.89338V7.36534Z" fill="black"/>
<path d="M12.4214 3.1519H11.579V4.83728H12.4214V3.1519Z" fill="black"/>
<path d="M12.4215 4.83728V5.67996H14.9496V8.20803H15.7923V3.1519H14.9496V4.83728H12.4215Z" fill="black"/>
<path d="M20.8484 3.1519H18.3206V5.67996H20.8484V3.1519Z" fill="#BC3845"/>
<path d="M11.579 7.36534H10.7361V8.20803H12.4215V5.67996H11.579V7.36534Z" fill="black"/>
<path d="M14.1068 6.52265H13.2642V7.36534H14.1068V6.52265Z" fill="black"/>
<path d="M5.67999 12.4215V10.7361H4.83755V9.89341H5.67999V10.7361H7.36537V9.89341H6.52268V9.05072H7.36537V9.89341H8.20806V11.5788H9.05099V9.05072H8.20806V8.20803H4.83755V9.05072H1.46655V9.89341H2.30924V10.7361H3.99462V11.5788H4.83755V14.1068H5.67999V13.2642H6.52268V12.4215H5.67999Z" fill="black"/>
<path d="M13.2642 9.05072V9.89341H14.1069V8.20803H12.4215V9.05072H13.2642Z" fill="black"/>
<path d="M17.4778 9.89341H19.163V9.05072H18.3205V8.20803H16.6349V9.05072H17.4778V9.89341Z" fill="black"/>
<path d="M21.6911 8.20803H20.8484V9.05072H21.6911V8.20803Z" fill="black"/>
<path d="M12.4215 9.05072H10.7361V9.89341H12.4215V9.05072Z" fill="black"/>
<path d="M22.5337 9.05072H21.6913V9.89341H22.5337V9.05072Z" fill="black"/>
<path d="M20.8483 9.8934H20.0059V11.5788H21.6912V13.2642H22.5337V10.7361H20.8483V9.8934Z" fill="black"/>
<path d="M10.7361 10.7361H9.89343V11.5788H10.7361V10.7361Z" fill="black"/>
<path d="M11.579 10.7361V11.5788H12.4214V12.4215H14.1068V11.5788H14.9495V10.7361H11.579Z" fill="black"/>
<path d="M2.30924 11.5788H1.46655V13.2639H2.30924V11.5788Z" fill="black"/>
<path d="M3.99455 11.5788H3.15186V12.4215H3.99455V11.5788Z" fill="black"/>
<path d="M9.05102 13.2642V12.4215H8.20808V11.5788H6.52271V12.4215H7.36539V13.2642H8.20808V14.1068H9.89346V13.2642H9.05102Z" fill="black"/>
<path d="M9.89334 11.5788H9.0509V12.4215H9.89334V11.5788Z" fill="black"/>
<path d="M15.792 11.5788H14.9496V12.4215H15.792V11.5788Z" fill="black"/>
<path d="M20.0057 11.5788H19.163V12.4215H20.0057V11.5788Z" fill="black"/>
<path d="M10.7361 12.4215H9.89343V13.2639H10.7361V12.4215Z" fill="black"/>
<path d="M7.36515 13.2642H6.52271V14.1068H7.36515V13.2642Z" fill="black"/>
<path d="M9.89343 14.1068V14.9495H10.7361V15.7922H11.5791V16.6349H13.2642V14.9495H11.5791V14.1068H12.4215V13.2642H10.7361V14.1068H9.89343Z" fill="black"/>
<path d="M7.36539 14.1068V14.9495H6.52271V15.7922H8.20808V14.1068H7.36539Z" fill="black"/>
<path d="M20.8483 14.1068H20.0059V14.9495H20.8483V14.1068Z" fill="black"/>
<path d="M3.15193 14.9495H1.46655V15.792H3.15193V14.9495Z" fill="black"/>
<path d="M5.67997 14.9495H4.83752V15.792H5.67997V14.9495Z" fill="black"/>
<path d="M9.89334 14.9495H9.0509V15.792H9.89334V14.9495Z" fill="black"/>
<path d="M21.6911 14.9495H20.8484V15.792H21.6911V14.9495Z" fill="black"/>
<path d="M10.7361 15.7922H9.89343V16.6349H10.7361V15.7922Z" fill="black"/>
<path d="M17.4778 11.5788H18.3205V10.7361H16.6349V9.05072H15.7922V11.5788H16.6349V14.1068H14.9495V13.2642H13.2641V14.9495H14.9495V16.6349H13.2641V17.4776H9.05094V15.7922H8.20825V19.163H9.05094V20.8484H9.89338V18.3203H10.7361V19.1627H11.5788V18.3203H14.1068V17.4776H14.9495V18.3203H14.1068V19.1627H14.9495V20.0052H15.7922V20.8484H14.9495V21.691H15.7922V22.5337H19.163V21.6913H16.6349V19.1627H19.163V14.9495H17.4776V14.1068H20.0056V13.2642H19.163V12.4215H17.4776V11.5788H17.4778ZM18.3205 15.7922V18.3203H15.7922V15.7922H18.3205Z" fill="black"/>
<path d="M20.8483 15.7922H20.0059V16.6349H20.8483V15.7922Z" fill="black"/>
<path d="M22.5337 15.7922H21.6913V16.6349H22.5337V15.7922Z" fill="black"/>
<path d="M17.4776 16.6349H16.6349V17.4774H17.4776V16.6349Z" fill="black"/>
<path d="M1.46655 22.5337H7.36537V16.6349H1.46655V22.5337ZM2.30924 17.4776H6.52268V21.6913H2.30924V17.4776Z" fill="black"/>
<path d="M22.5337 17.4776H20.0059V18.3203H22.5337V17.4776Z" fill="black"/>
<path d="M5.67992 18.3203H3.15186V20.8483H5.67992V18.3203Z" fill="#BC3845"/>
<path d="M13.2642 20.8483H12.4215V20.0054H11.5791V20.8483H9.89343V21.6913H11.5791V22.5337H13.2642V21.6913H14.1069V19.1627H13.2642V20.8483Z" fill="black"/>
<path d="M20.8483 19.1627H20.0059V21.6913H20.8483V22.5337H22.5337V21.6913H21.6912V20.0054H20.8483V19.1627Z" fill="black"/>
<path d="M22.5337 19.1627H21.6913V20.0052H22.5337V19.1627Z" fill="black"/>
<path d="M9.89334 21.6913H9.0509V22.5337H9.89334V21.6913Z" fill="black"/>
</svg>
