<svg width="40" height="40" viewBox="0 0 40 40" fill="none" xmlns="http://www.w3.org/2000/svg">
<circle cx="20" cy="20" r="20" fill="#2B3245"/>
<rect x="10.2545" y="16.6132" width="20.491" height="12.4248" fill="#399FB8"/>
<path fill-rule="evenodd" clip-rule="evenodd" d="M11.7075 20.6292L15.4418 20.6292C15.4418 19.7394 14.6058 19.018 13.5746 19.018C12.5504 19.018 11.7189 19.7295 11.7075 20.6109L11.7075 20.6292ZM15.4418 26.6833V20.6292H11.7074V26.6833H15.4418Z" fill="#21839C"/>
<path fill-rule="evenodd" clip-rule="evenodd" d="M12.0086 20.9218C12.0321 20.0878 12.7294 19.4188 13.5862 19.4188C14.4429 19.4188 15.1402 20.0878 15.1637 20.9218H15.1642V20.9517C15.1643 20.9562 15.1643 20.9608 15.1643 20.9653V20.9653H15.1642V26.2826H12.0079V20.9218H12.0086Z" fill="#9FECFF"/>
<path fill-rule="evenodd" clip-rule="evenodd" d="M25.5352 20.6292L29.2694 20.6292C29.2694 19.7394 28.4334 19.018 27.4022 19.018C26.3781 19.018 25.5465 19.7295 25.5352 20.6109L25.5352 20.6292ZM29.2696 26.6833V20.6292H25.5352V26.6833H29.2696Z" fill="#21839C"/>
<path fill-rule="evenodd" clip-rule="evenodd" d="M25.8364 20.9218C25.8598 20.0878 26.5571 19.4188 27.4139 19.4188C28.2707 19.4188 28.968 20.0878 28.9915 20.9218H28.992V20.9517C28.992 20.9562 28.9921 20.9608 28.9921 20.9653V20.9653H28.992V26.2826H25.8357V20.9218H25.8364Z" fill="#9FECFF"/>
<path fill-rule="evenodd" clip-rule="evenodd" d="M24.4329 22.1994V29.0301H16.4669V22.1994V21.804H16.4884C16.6966 19.9008 18.3907 18.4168 20.4499 18.4168C22.509 18.4168 24.2032 19.9008 24.4114 21.804H24.4329V22.1994Z" fill="#21839C"/>
<path fill-rule="evenodd" clip-rule="evenodd" d="M24.1323 22.5V29.0257H16.7676V22.5V22.2669H16.7748C16.8951 20.3418 18.4945 18.8176 20.4499 18.8176C22.4054 18.8176 24.0048 20.3418 24.1251 22.2669H24.1323V22.5Z" fill="#9FECFF"/>
<path d="M16.7675 27.0341L23.4809 20.3958L23.7063 20.7715L23.8065 20.997L23.9067 21.1974L16.7675 28.2114L16.7675 27.0341Z" fill="white"/>
<path d="M16.7675 25.1804L22.504 19.4439L22.7795 19.6443L22.9549 19.8196L16.7675 25.9068L16.7675 25.1804Z" fill="white"/>
<path d="M12.0081 24.0781L15.1668 21.0245L15.1644 21.2976L15.1644 21.4729L15.1644 21.6733L12.0081 24.7295L12.0081 24.0781Z" fill="white"/>
<path d="M25.8357 24.2285L28.992 21.1723L28.992 21.4729L28.992 21.6232L28.992 21.8236L25.8357 24.8798L25.8357 24.2285Z" fill="white"/>
<path d="M12.008 23.1763L14.964 20.2204L15.0641 20.4208L15.1088 20.5711L12.008 23.5771L12.008 23.1763Z" fill="white"/>
<path d="M25.8357 23.3267L28.8417 20.3206L28.9419 20.5461L28.967 20.6964L25.8357 23.7275L25.8357 23.3267Z" fill="white"/>
<path d="M12.008 25.1303L15.1643 22.1243L15.1643 22.3247L15.1643 22.5251L12.008 25.5311L12.008 25.1303Z" fill="white"/>
<path d="M25.8356 25.2727L28.9919 22.2666L28.9919 22.4671L28.9919 22.6675L25.8356 25.6735L25.8356 25.2727Z" fill="white"/>
<path d="M16.9178 29.0381L24.057 21.7485L24.1322 22.2245L24.1322 22.5L17.6943 29.0381L16.9178 29.0381Z" fill="white"/>
<rect x="10.2545" y="28.2866" width="6.26253" height="0.751503" fill="#21839C"/>
<rect x="24.3828" y="28.2866" width="6.36273" height="0.751503" fill="#21839C"/>
<path d="M11.5715 16.684C11.5715 17.4223 10.7719 18.0208 9.78594 18.0208C8.8 18.0208 8 17.4223 8 16.684H11.5715Z" fill="#E85931"/>
<path d="M15.143 16.684C15.143 17.4223 14.3434 18.0208 13.3574 18.0208C12.3715 18.0208 11.5719 17.4223 11.5719 16.684H15.143Z" fill="#EDC256"/>
<path d="M18.7144 16.684C18.7144 17.4223 17.9148 18.0208 16.9289 18.0208C15.9429 18.0208 15.1433 17.4223 15.1433 16.684H18.7144Z" fill="#E85931"/>
<path d="M22.2856 16.684C22.2856 17.4223 21.486 18.0208 20.5 18.0208C19.5141 18.0208 18.7145 17.4223 18.7145 16.684H22.2856Z" fill="#EDC256"/>
<path d="M29.4285 16.684C29.4285 17.4223 28.6289 18.0208 27.643 18.0208C26.6566 18.0208 25.8574 17.4223 25.8574 16.684H29.4285Z" fill="#EDC256"/>
<path d="M25.857 16.684C25.857 17.4223 25.0574 18.0208 24.0714 18.0208C23.0851 18.0208 22.2859 17.4223 22.2859 16.684H25.857Z" fill="#E85931"/>
<path d="M32.9999 16.684C32.9999 17.4223 32.2003 18.0208 31.2144 18.0208C30.2281 18.0208 29.4288 17.4223 29.4288 16.684H32.9999Z" fill="#E85931"/>
<path d="M8 16.684H11.5715L14.6965 10H11.5715L8 16.684Z" fill="#FF9274"/>
<path d="M11.5715 16.684H15.143L17.375 10H14.6965L11.5715 16.684Z" fill="#FFD873"/>
<path d="M15.1429 16.684H18.7144L20.0535 10H17.375L15.1429 16.684Z" fill="#FF9274"/>
<path d="M18.7145 16.684H22.2856V10H20.0535L18.7145 16.684Z" fill="#FFD873"/>
<path d="M32.9999 16.684H29.4284L27.1964 10H29.8749L32.9999 16.684Z" fill="#FF9274"/>
<path d="M29.4285 16.684H25.857L24.5179 10H27.1965L29.4285 16.684Z" fill="#FFD873"/>
<path d="M25.857 16.684H22.2855V10H24.5179L25.857 16.684Z" fill="#FF9274"/>
</svg>
