<svg width="35" height="35" viewBox="0 0 35 35" fill="none" xmlns="http://www.w3.org/2000/svg">
<circle cx="17.5" cy="17.5" r="17.5" fill="#ADBEFC"/>
<path d="M16.75 18.5L16.75 19L17.25 19L19.5 19C22.9491 19 25.75 21.8009 25.75 25.25C25.75 25.3879 25.6379 25.5 25.5 25.5L22.5 25.5C22.3621 25.5 22.25 25.3879 22.25 25.25C22.25 23.7319 21.0181 22.5 19.5 22.5L17.25 22.5L16.75 22.5L16.75 23L16.75 23.849C16.75 24.2173 16.5471 24.5563 16.2223 24.7303C15.8963 24.9046 15.5018 24.8853 15.1958 24.6811L15.1956 24.681L10.5473 21.5821C10.5472 21.5821 10.5472 21.582 10.5471 21.582C10.2692 21.3964 10.1023 21.0845 10.1023 20.75C10.1023 20.4155 10.2692 20.1036 10.5471 19.918C10.5472 19.918 10.5472 19.9179 10.5473 19.9179L15.1956 16.819L15.1958 16.8189C15.5018 16.6147 15.8963 16.5954 16.2223 16.7697C16.547 16.9437 16.75 17.2826 16.75 17.6518L16.75 18.5ZM19.2493 15.5L19.2493 15L18.7493 15L16.4993 15C13.0501 15 10.2493 12.1991 10.2493 8.75C10.2493 8.61247 10.3618 8.5 10.4993 8.5L13.4962 8.5C13.5154 8.50028 13.5297 8.50133 13.5389 8.50239C13.5403 8.50256 13.5415 8.50271 13.5425 8.50285L13.5467 8.5041L13.5589 8.50703C13.6684 8.53348 13.7493 8.63255 13.7493 8.75C13.7493 10.2683 14.982 11.5 16.4993 11.5L18.7493 11.5L19.2493 11.5L19.2493 11L19.2493 10.1517C19.2493 10.1516 19.2493 10.1515 19.2493 10.1514C19.2499 9.78221 19.4527 9.44343 19.7777 9.2697L19.778 9.26955C20.1028 9.09565 20.4972 9.11452 20.8044 9.319C20.8044 9.31905 20.8045 9.31909 20.8046 9.31913L25.4521 12.418L25.4523 12.4181C25.7309 12.6037 25.8978 12.9155 25.8978 13.25C25.8978 13.5845 25.7309 13.8963 25.4523 14.0819L25.4521 14.082L20.8046 17.1809C20.4974 17.3855 20.1029 17.4044 19.778 17.2305L19.7777 17.2303C19.4523 17.0563 19.2493 16.7174 19.2493 16.3483L19.2493 15.5Z" stroke="black"/>
</svg>
