<svg width="40" height="40" viewBox="0 0 40 40" fill="none" xmlns="http://www.w3.org/2000/svg">
<circle cx="20" cy="20" r="20" fill="#2B3245"/>
<path d="M11.7886 19.4198L9 22.0756C9.44263 24.997 12.2932 30.9459 20.1543 31.3709C28.0154 31.7958 31.043 25.3511 31.5741 22.0756L28.6528 19.4198V14.3739L27.0593 12.5148H13.2492L12.5189 13.4443L11.7886 14.3739V19.4198Z" fill="#B43443"/>
<circle cx="22.0133" cy="9.85905" r="1.85905" fill="#DA9613" stroke="black"/>
<circle cx="18.8263" cy="9.85905" r="1.85905" fill="#DA9613" stroke="black"/>
<circle cx="21.615" cy="9.99184" r="1.46068" fill="#DA9613"/>
<path d="M10.0623 12.5148V21.0532L11.7885 19.4198V14.3739L12.5189 13.4443L13.2492 12.5148H27.0592L28.6527 14.3739V19.4198L30.5118 21.1461V12.5148C30.5118 12.1165 30.1365 11.6898 29.715 11.3197C29.2441 10.9063 28.2543 10.6558 28.2543 10.6558H11.3901C10.569 11.0595 10.3235 11.5147 10.0623 12.5148Z" fill="#DA9613"/>
<path d="M10.0623 21.0133L9 22.0756C9.61968 25.2626 12.8243 31.6099 20.6854 31.5036C28.5465 31.3974 31.22 25.174 31.5741 22.0756L30.5118 21.1461V12.3371C29.907 11.2636 29.5208 10.9914 28.2544 10.6558H22.8101L21.6149 9.06231L20.2871 9.72626C19.3735 8.79893 19.3144 8.7133 18.428 9.32789C17.8538 9.86345 17.6639 9.85301 17.8969 10.6558H11.3902C10.6223 11.0484 10.3157 11.4489 10.0623 12.5148V21.0133Z" stroke="black"/>
<path d="M23.6674 9.99036C23.6674 10.9437 23.1601 11.7166 22.2067 11.7166C21.2533 11.7166 20.1543 10.9452 20.1543 9.99184C20.1543 9.03845 20.9272 8.26558 21.8806 8.26558C22.8339 8.26558 23.6674 9.03698 23.6674 9.99036Z" fill="#DA9613"/>
<path d="M20.5526 9.99184C20.5526 10.9452 19.9125 11.7181 18.9591 11.7181C18.0058 11.7181 17.1001 10.9452 17.1001 9.99184C17.1001 9.03845 17.873 8.26558 18.8264 8.26558C19.7797 8.26558 20.5526 9.03845 20.5526 9.99184Z" fill="#DA9613"/>
</svg>
