<svg width="35" height="35" viewBox="0 0 35 35" fill="none" xmlns="http://www.w3.org/2000/svg">
<circle cx="17.5" cy="17.5" r="17.5" fill="#FFC1BA"/>
<path d="M27.6 12H8.08C6.96 12 6 12.96 6 14.16V19.12C6 20.32 6.96 21.28 8.16 21.28H10.16C10.48 21.28 10.8 21.04 10.8 20.64C10.8 20.24 10.56 20 10.16 20H8.08C7.6 20 7.12 19.6 7.12 19.04V14.16C7.12 13.68 7.52 13.2 8.08 13.2H27.52C28 13.2 28.48 13.6 28.48 14.16V18.96C28.48 19.44 28.08 19.92 27.52 19.92H24.96C24.64 19.92 24.32 20.16 24.32 20.56C24.32 20.96 24.56 21.2 24.96 21.2H27.52C28.72 21.2 29.68 20.24 29.68 19.04V14.24C29.68 12.96 28.72 12 27.6 12ZM27.04 15.2C27.04 14.88 26.8 14.56 26.4 14.56H9.2C8.88 14.56 8.56 14.8 8.56 15.2C8.56 15.6 8.8 15.84 9.2 15.84H26.4C26.8 15.84 27.04 15.52 27.04 15.2ZM23.28 16.4C22.96 16.24 22.64 16.4 22.48 16.72C22.24 17.36 22.24 18.32 22.16 19.52C22.08 21.52 22 24.24 20.72 25.52H11.6C12.72 23.76 12.8 21.2 12.88 19.28C12.88 18.48 12.96 17.52 13.04 17.28C13.2 16.96 13.12 16.64 12.8 16.48C12.48 16.32 12.16 16.4 12 16.72C11.76 17.2 11.68 17.92 11.68 19.2C11.6 21.28 11.52 24.4 9.92 25.68C9.76 25.84 9.68 26.08 9.76 26.32C9.84 26.56 10.08 26.72 10.32 26.72H21.04C21.2 26.72 21.36 26.64 21.44 26.56C23.28 24.96 23.36 21.84 23.44 19.52C23.44 18.56 23.52 17.6 23.68 17.2C23.76 16.88 23.6 16.48 23.28 16.4ZM17.52 18.96C18.96 18.96 20.08 18.08 20.08 16.96H14.96C15.04 18.08 16.16 18.96 17.52 18.96Z" fill="#262324"/>
</svg>
