<svg xmlns="http://www.w3.org/2000/svg" xmlns:xlink="http://www.w3.org/1999/xlink" width="20" height="20" viewBox="0 0 20 20">
  <defs>
    <clipPath id="clip-path">
      <rect width="20" height="20" fill="none"/>
    </clipPath>
  </defs>
  <g id="help" clip-path="url(#clip-path)">
    <g id="Icons_24pt_ic_help" data-name="Icons / 24pt / ic_help">
      <g id="ic">
        <path id="Path" d="M0,6.628V3.738A3.739,3.739,0,0,1,3.739,0H6.679" transform="translate(1 1)" fill="none" stroke="#fff" stroke-linecap="round" stroke-linejoin="round" stroke-miterlimit="10" stroke-width="1.5"/>
        <path id="Path-2" data-name="Path" d="M6.586,6.579V3.738A3.739,3.739,0,0,0,2.847,0H0" transform="translate(12.414 1)" fill="none" stroke="#fff" stroke-linecap="round" stroke-linejoin="round" stroke-miterlimit="10" stroke-width="1.5"/>
        <path id="Path-3" data-name="Path" d="M0,0V2.883A3.739,3.739,0,0,0,3.739,6.621h2.9" transform="translate(1 12.379)" fill="none" stroke="#fff" stroke-linecap="round" stroke-linejoin="round" stroke-miterlimit="10" stroke-width="1.5"/>
        <path id="Path-4" data-name="Path" d="M6.609,0V2.894A3.739,3.739,0,0,1,2.871,6.632H0" transform="translate(12.391 12.368)" fill="none" stroke="#fff" stroke-linecap="round" stroke-linejoin="round" stroke-miterlimit="10" stroke-width="1.5"/>
        <circle id="Oval" cx="9" cy="9" r="9" transform="translate(1.001 1)" fill="none" stroke="#fff" stroke-linecap="round" stroke-linejoin="round" stroke-miterlimit="10" stroke-width="1.5"/>
        <circle id="Oval-2" data-name="Oval" cx="6" cy="6" r="6" transform="translate(4 4)" fill="none" stroke="#fff" stroke-linecap="round" stroke-linejoin="round" stroke-miterlimit="10" stroke-width="1.5"/>
        <path id="Path-5" data-name="Path" d="M.752,4.349,0,0" transform="translate(7.507 1.396)" fill="none" stroke="#fff" stroke-linecap="round" stroke-linejoin="round" stroke-miterlimit="10" stroke-width="1.5"/>
        <path id="Path-6" data-name="Path" d="M0,4.3.751,0" transform="translate(11.742 1.446)" fill="none" stroke="#fff" stroke-linecap="round" stroke-linejoin="round" stroke-miterlimit="10" stroke-width="1.5"/>
        <path id="Path-7" data-name="Path" d="M.735,0,0,4.343" transform="translate(7.525 14.252)" fill="none" stroke="#fff" stroke-linecap="round" stroke-linejoin="round" stroke-miterlimit="10" stroke-width="1.5"/>
        <path id="Path-8" data-name="Path" d="M0,0,.755,4.323" transform="translate(11.739 14.252)" fill="none" stroke="#fff" stroke-linecap="round" stroke-linejoin="round" stroke-miterlimit="10" stroke-width="1.5"/>
        <path id="Path-9" data-name="Path" d="M0,.73,4.314,0" transform="translate(14.268 7.534)" fill="none" stroke="#fff" stroke-linecap="round" stroke-linejoin="round" stroke-miterlimit="10" stroke-width="1.5"/>
        <path id="Path-10" data-name="Path" d="M0,0,4.29.749" transform="translate(14.276 11.753)" fill="none" stroke="#fff" stroke-linecap="round" stroke-linejoin="round" stroke-miterlimit="10" stroke-width="1.5"/>
        <path id="Path-11" data-name="Path" d="M4.313.73,0,0" transform="translate(1.389 7.53)" fill="none" stroke="#fff" stroke-linecap="round" stroke-linejoin="round" stroke-miterlimit="10" stroke-width="1.5"/>
        <path id="Path-12" data-name="Path" d="M4.289,0,0,.749" transform="translate(1.436 11.753)" fill="none" stroke="#fff" stroke-linecap="round" stroke-linejoin="round" stroke-miterlimit="10" stroke-width="1.5"/>
        <g id="bound_24" clip-path="url(#clip-path)">
          <rect id="bound_24-2" data-name="bound_24" width="20" height="20" fill="none"/>
          <text id="_24" data-name="24" transform="translate(10 14.222)" fill="none" font-size="12" font-family="Montserrat-Regular, Montserrat"><tspan x="-7.236" y="0">24</tspan></text>
        </g>
      </g>
    </g>
  </g>
</svg>
