<svg xmlns="http://www.w3.org/2000/svg" width="16.167" height="20.5" viewBox="0 0 16.167 20.5">
  <g id="history" transform="translate(-6.25 0.25)">
    <path id="Path_8922" data-name="Path 8922" d="M17.3,0H6.5V20H22.167V4.862Zm.2,1.138,3.529,3.529H17.5ZM7.167,19.333V.667h9.667V5.333H21.5v14Z" fill="#fff" stroke="#fff" stroke-width="0.5"/>
    <path id="Path_8923" data-name="Path 8923" d="M31.167,21H25.833a.333.333,0,1,0,0,.667h5.333a.333.333,0,1,0,0-.667Z" transform="translate(-12.667 -14)" fill="#fff" stroke="#fff" stroke-width="0.5"/>
    <path id="Path_8924" data-name="Path 8924" d="M17.958,18.073,16.524,19.22l-.456-.456a.333.333,0,0,0-.471.471l.667.667a.333.333,0,0,0,.444.025l1.667-1.333a.333.333,0,0,0-.416-.521Z" transform="translate(-6 -12)" fill="#fff" stroke="#fff" stroke-width="0.5"/>
    <path id="Path_8925" data-name="Path 8925" d="M31.167,32H25.833a.333.333,0,1,0,0,.667h5.333a.333.333,0,1,0,0-.667Z" transform="translate(-12.667 -21.333)" fill="#fff" stroke="#fff" stroke-width="0.5"/>
    <path id="Path_8926" data-name="Path 8926" d="M17.958,29.073,16.524,30.22l-.456-.456a.333.333,0,0,0-.471.471l.667.667a.333.333,0,0,0,.444.025l1.667-1.333a.333.333,0,0,0-.416-.521Z" transform="translate(-6 -19.333)" fill="#fff" stroke="#fff" stroke-width="0.5"/>
    <path id="Path_8927" data-name="Path 8927" d="M31.167,43H25.833a.333.333,0,1,0,0,.667h5.333a.333.333,0,1,0,0-.667Z" transform="translate(-12.667 -28.667)" fill="#fff" stroke="#fff" stroke-width="0.5"/>
    <path id="Path_8928" data-name="Path 8928" d="M17.958,40.073,16.524,41.22l-.456-.456a.333.333,0,0,0-.471.471l.667.667a.333.333,0,0,0,.444.025l1.667-1.333a.333.333,0,0,0-.416-.521Z" transform="translate(-6 -26.666)" fill="#fff" stroke="#fff" stroke-width="0.5"/>
  </g>
</svg>
