<svg xmlns="http://www.w3.org/2000/svg" width="20.091" height="19.544" viewBox="0 0 20.091 19.544">
  <g id="house" transform="translate(0 -0.818)">
    <path id="Path_8872" data-name="Path 8872" d="M14,29.531h4.688V26.182H14Zm.67-.67v-1h3.349v1Zm3.349-2.009v.335H14.67v-.335Z" transform="translate(-9.312 -16.871)" fill="#fff"/>
    <path id="Path_8873" data-name="Path 8873" d="M14,40.182V44.2h4.688V40.182Zm2.009.67v1H14.67v-1ZM14.67,42.526h1.339v1H14.67Zm2.009,1v-1h1.339v1Zm1.339-1.674H16.679v-1h1.339Z" transform="translate(-9.312 -26.183)" fill="#fff"/>
    <path id="Path_8874" data-name="Path 8874" d="M32,29.531h4.688V26.182H32Zm.67-.67v-.335h3.349v.335Zm3.349-2.009v1H32.67v-1Z" transform="translate(-21.285 -16.871)" fill="#fff"/>
    <path id="Path_8875" data-name="Path 8875" d="M19.756,16.678a.335.335,0,0,0-.335.335v.335h-.335v-.335a.335.335,0,0,0-.67,0v.335h-.335V10.582A1.336,1.336,0,0,0,19.96,9.257a1.345,1.345,0,0,0-.51-.949L10.957,1.664,10.046.818l-.89.828L.641,8.308a1.339,1.339,0,0,0-.156,1.966,1.329,1.329,0,0,0,1.525.309v6.765H1.674v-.335a.335.335,0,1,0-.67,0v.335H.67v-.335a.335.335,0,1,0-.67,0v3.014a.335.335,0,1,0,.67,0v-.335H1v.335a.335.335,0,1,0,.67,0v-.335h.335v.67H18.082v-.67h.335v.335a.335.335,0,1,0,.67,0v-.335h.335v.335a.335.335,0,1,0,.67,0V17.013A.335.335,0,0,0,19.756,16.678ZM.975,9.818a.669.669,0,0,1,.078-.982L9.59,2.155l.456-.424.477.442,8.515,6.662a.669.669,0,0,1-.821,1.057l-.135-.1h0L10.046,3.594,2.14,9.688h0l-.265.2A.666.666,0,0,1,.975,9.818Zm-.305,9.2v-1H1v1Zm1,0v-1h.335v1Zm9.711.67V14.669h3.349v5.023Zm6.027,0H15.4V14H10.715v5.692H2.679V10.118l7.367-5.679,7.367,5.679Zm.67-.67v-1h.335v1Zm1,0v-1h.335v1Z" fill="#fff"/>
  </g>
</svg>
