<svg xmlns="http://www.w3.org/2000/svg" width="37.165" height="36.153" viewBox="0 0 37.165 36.153">
  <g id="house_1_" data-name="house(1)" transform="translate(0 -0.818)">
    <path id="Path_9191" data-name="Path 9191" d="M14,32.376h8.672V26.182H14Zm1.239-1.239V29.279h6.194v1.858Zm6.194-3.717v.619H15.239v-.619Z" transform="translate(-5.328 -9.653)" fill="#fff"/>
    <path id="Path_9192" data-name="Path 9192" d="M14,40.182v7.433h8.672V40.182Zm3.717,1.239v1.858H15.239V41.421Zm-2.478,3.1h2.478v1.858H15.239Zm3.717,1.858V44.518h2.478v1.858Zm2.478-3.1H18.955V41.421h2.478Z" transform="translate(-5.328 -14.981)" fill="#fff"/>
    <path id="Path_9193" data-name="Path 9193" d="M32,32.376h8.672V26.182H32Zm1.239-1.239v-.619h6.194v.619Zm6.194-3.717v1.858H33.239V27.421Z" transform="translate(-12.178 -9.653)" fill="#fff"/>
    <path id="Path_9194" data-name="Path 9194" d="M36.546,30.156a.619.619,0,0,0-.619.619V31.4h-.619v-.619a.619.619,0,1,0-1.239,0V31.4h-.619V18.88a2.471,2.471,0,0,0,3.475-2.452,2.488,2.488,0,0,0-.943-1.755L20.269,2.383,18.583.818,16.937,2.349,1.185,14.673A2.477,2.477,0,0,0,.9,18.31a2.458,2.458,0,0,0,2.82.571V31.4H3.1v-.619a.619.619,0,0,0-1.239,0V31.4H1.239v-.619a.619.619,0,0,0-1.239,0v5.575a.619.619,0,1,0,1.239,0v-.619h.619v.619a.619.619,0,1,0,1.239,0v-.619h.619v1.239H33.449V35.732h.619v.619a.619.619,0,1,0,1.239,0v-.619h.619v.619a.619.619,0,1,0,1.239,0V30.776A.619.619,0,0,0,36.546,30.156ZM1.8,17.466a1.238,1.238,0,0,1,.145-1.817L17.74,3.291l.843-.784.882.817L35.217,15.649A1.238,1.238,0,0,1,33.7,17.6l-.25-.192h0L18.583,5.953,3.958,17.227h0l-.49.377A1.233,1.233,0,0,1,1.8,17.466ZM1.239,34.492V32.634h.619v1.858Zm1.858,0V32.634h.619v1.858ZM21.06,35.731V26.44h6.194v9.291Zm11.15,0H28.494V25.2H19.822v10.53H4.955V18.021l13.627-10.5,13.627,10.5Zm1.239-1.239V32.634h.619v1.858Zm1.858,0V32.634h.619v1.858Z" fill="#fff"/>
  </g>
</svg>
