<svg xmlns="http://www.w3.org/2000/svg" width="49.504" height="43.394" viewBox="0 0 49.504 43.394">
  <g id="house_2_" data-name="house(2)" transform="translate(0 -31.599)">
    <g id="Group_8929" data-name="Group 8929" transform="translate(33.357 59.266)">
      <g id="Group_8928" data-name="Group 8928">
        <path id="Path_9241" data-name="Path 9241" d="M348.472,317.752h-2.458A1.016,1.016,0,0,0,345,318.767v6.56a1.016,1.016,0,0,0,1.015,1.015h2.458a1.016,1.016,0,0,0,1.015-1.015v-6.56A1.016,1.016,0,0,0,348.472,317.752Zm-.435,7.14h-1.587V319.2h1.587Z" transform="translate(-344.999 -317.752)" fill="#fff"/>
      </g>
    </g>
    <g id="Group_8931" data-name="Group 8931" transform="translate(39.878 59.266)">
      <g id="Group_8930" data-name="Group 8930">
        <path id="Path_9242" data-name="Path 9242" d="M415.915,317.752h-2.458a1.016,1.016,0,0,0-1.015,1.015v6.56a1.016,1.016,0,0,0,1.015,1.015h2.458a1.016,1.016,0,0,0,1.015-1.015v-6.56A1.016,1.016,0,0,0,415.915,317.752Zm-.435,7.14h-1.587V319.2h1.587Z" transform="translate(-412.442 -317.752)" fill="#fff"/>
      </g>
    </g>
    <g id="Group_8933" data-name="Group 8933" transform="translate(3.365 40.903)">
      <g id="Group_8932" data-name="Group 8932">
        <path id="Path_9243" data-name="Path 9243" d="M41.394,130.493c-1.355-.422-1.518-.585-1.94-1.94a1.04,1.04,0,0,0-1.986,0c-.422,1.355-.585,1.518-1.94,1.94a1.04,1.04,0,0,0,0,1.986c1.355.422,1.518.585,1.94,1.939a1.04,1.04,0,0,0,1.986,0c.422-1.355.585-1.518,1.939-1.94a1.04,1.04,0,0,0,0-1.986Zm-2.933,2.446a2.762,2.762,0,0,0-1.453-1.453,2.762,2.762,0,0,0,1.453-1.453,2.762,2.762,0,0,0,1.453,1.453A2.761,2.761,0,0,0,38.462,132.939Z" transform="translate(-34.798 -127.822)" fill="#fff"/>
      </g>
    </g>
    <g id="Group_8935" data-name="Group 8935" transform="translate(22.77 65.805)">
      <g id="Group_8934" data-name="Group 8934">
        <path id="Path_9244" data-name="Path 9244" d="M241.116,387.594c-1.083-.337-1.183-.437-1.52-1.52a.985.985,0,0,0-1.882,0c-.337,1.083-.437,1.183-1.519,1.52a.985.985,0,0,0,0,1.882c1.083.337,1.183.437,1.52,1.521a.985.985,0,0,0,1.882,0c.337-1.083.437-1.183,1.52-1.52a.985.985,0,0,0,0-1.882Zm-2.461,1.87a2.3,2.3,0,0,0-.929-.929,2.3,2.3,0,0,0,.929-.929,2.305,2.305,0,0,0,.929.929A2.3,2.3,0,0,0,238.655,389.464Z" transform="translate(-235.501 -385.381)" fill="#fff"/>
      </g>
    </g>
    <g id="Group_8937" data-name="Group 8937" transform="translate(42.258 43.893)">
      <g id="Group_8936" data-name="Group 8936" transform="translate(0 0)">
        <path id="Path_9245" data-name="Path 9245" d="M442.675,160.964c-1.083-.337-1.183-.437-1.52-1.52a.985.985,0,0,0-1.882,0c-.337,1.083-.437,1.183-1.52,1.52a.985.985,0,0,0,0,1.882c1.083.337,1.183.437,1.52,1.521a.985.985,0,0,0,1.882,0c.337-1.083.437-1.183,1.52-1.52a.985.985,0,0,0,0-1.882Zm-2.461,1.87a2.305,2.305,0,0,0-.929-.929.929.929,0,0,1,1.859,0A2.3,2.3,0,0,0,440.214,162.834Z" transform="translate(-437.06 -158.751)" fill="#fff"/>
      </g>
    </g>
    <g id="Group_8939" data-name="Group 8939" transform="translate(0 45.242)">
      <g id="Group_8938" data-name="Group 8938">
        <path id="Path_9246" data-name="Path 9246" d="M47.495,198.379V192.94a.725.725,0,1,0-1.45,0v5.039a2.364,2.364,0,0,0-2.425-.672,2.371,2.371,0,0,0-4.29.794,2.4,2.4,0,0,0-.747.012,2.372,2.372,0,0,0-4.707.415V201H30.91V185.877H46.044v3.2a.725.725,0,1,0,1.45,0v-3.2h.753a.894.894,0,0,0,.652-1.58L37.792,173.256a2.051,2.051,0,0,0-1.337-.552h0l-21.057,0a1.983,1.983,0,0,0-1.286.55l-3.7,3.674a.725.725,0,0,0,1.022,1.029l3.773-3.751.726.729-9.36,9.36a.679.679,0,0,1-.313.13H4.93l4.09-4.065A.725.725,0,1,0,8,179.333L3,184.3a.893.893,0,0,0,.652,1.58H6.022v2.84a7.671,7.671,0,0,1-.794.282,1.04,1.04,0,0,0,0,1.986,7.653,7.653,0,0,1,.795.282v4.895a2.849,2.849,0,0,0-2.12,1.633,2.846,2.846,0,0,0-3.9,2.64v1.294a.725.725,0,0,0,.725.725H48.779a.725.725,0,0,0,.725-.725v-1.006A2.375,2.375,0,0,0,47.495,198.379ZM6.022,201H1.45v-.569a1.394,1.394,0,0,1,1.393-1.393,1.38,1.38,0,0,1,1.006.432.728.728,0,0,0,1.249-.51,1.394,1.394,0,0,1,.923-1.31Zm40.951-16.578H27.614a.676.676,0,0,1-.311-.129l-1.653-1.66H45.172Zm-6.132-6.1H38.192a.725.725,0,0,0,0,1.45H42.3l1.413,1.4H24.206l-1.4-1.4H34.131a.725.725,0,0,0,0-1.45H21.363l-1.4-1.4H39.427Zm-4.387-4.177a.686.686,0,0,1,.315.13l1.2,1.192H18.52l-1.313-1.319Zm-17,26.85H14.2V188.179h5.253V201Zm1.45,0V187.937a1.21,1.21,0,0,0-1.209-1.209H13.957a1.21,1.21,0,0,0-1.209,1.209V201H7.472V193.4a1.041,1.041,0,0,0,1.681-.472c.422-1.355.585-1.518,1.94-1.94a1.04,1.04,0,0,0,0-1.986c-1.355-.422-1.518-.585-1.94-1.939a1.041,1.041,0,0,0-1.681-.473v-.952a.68.68,0,0,1,.129-.313l9.358-9.358,9.317,9.356a2.041,2.041,0,0,0,1.338.556h1.845V201Zm-14.2-11.013a2.761,2.761,0,0,0,1.453-1.453,2.762,2.762,0,0,0,1.453,1.453,2.762,2.762,0,0,0-1.453,1.453A2.761,2.761,0,0,0,6.706,189.992ZM48.054,201H35.326v-2.476a.921.921,0,1,1,1.843,0v.7a.725.725,0,0,0,1.209.54.914.914,0,0,1,1.176-.043.725.725,0,0,0,1.169-.573v-.528a.921.921,0,0,1,1.825-.178.725.725,0,0,0,1.169.424.909.909,0,0,1,.58-.206.924.924,0,0,1,.921.928.725.725,0,0,0,1.249.5.913.913,0,0,1,.665-.286.922.922,0,0,1,.921.921Z" transform="translate(0 -172.704)" fill="#fff"/>
      </g>
    </g>
    <g id="Group_8941" data-name="Group 8941" transform="translate(17.543 65.465)">
      <g id="Group_8940" data-name="Group 8940">
        <path id="Path_9247" data-name="Path 9247" d="M182.16,381.858a.725.725,0,0,0-.725.725v1.02a.725.725,0,1,0,1.45,0v-1.02A.725.725,0,0,0,182.16,381.858Z" transform="translate(-181.435 -381.858)" fill="#fff"/>
      </g>
    </g>
    <g id="Group_8943" data-name="Group 8943" transform="translate(21.803 60.703)">
      <g id="Group_8942" data-name="Group 8942">
        <path id="Path_9248" data-name="Path 9248" d="M228.352,332.612h-1.837a1.016,1.016,0,0,0-1.015,1.015v2.224a1.016,1.016,0,0,0,1.015,1.015h1.837a1.016,1.016,0,0,0,1.015-1.015v-2.224A1.016,1.016,0,0,0,228.352,332.612Zm-.435,2.8h-.967v-1.354h.967Z" transform="translate(-225.5 -332.612)" fill="#fff"/>
      </g>
    </g>
    <g id="Group_8945" data-name="Group 8945" transform="translate(32.632 31.599)">
      <g id="Group_8944" data-name="Group 8944" transform="translate(0 0)">
        <path id="Path_9249" data-name="Path 9249" d="M342.479,31.6a4.979,4.979,0,1,0,4.979,4.979A4.985,4.985,0,0,0,342.479,31.6Zm0,8.509a3.529,3.529,0,1,1,3.529-3.529A3.533,3.533,0,0,1,342.479,40.108Z" transform="translate(-337.5 -31.599)" fill="#fff"/>
      </g>
    </g>
  </g>
</svg>
