<svg xmlns="http://www.w3.org/2000/svg" width="20.001" height="20" viewBox="0 0 20.001 20">
  <g id="logout" transform="translate(0 -0.008)">
    <path id="Path_8940" data-name="Path 8940" d="M285.874,209.258h-7.917a.625.625,0,0,1,0-1.25h7.917a.625.625,0,0,1,0,1.25Zm0,0" transform="translate(-266.499 -199.875)" fill="#fff"/>
    <path id="Path_8941" data-name="Path 8941" d="M400.629,135.471a.625.625,0,0,1-.442-1.068l2.683-2.683-2.683-2.683a.625.625,0,0,1,.884-.884l3.125,3.125a.625.625,0,0,1,0,.884l-3.125,3.125A.621.621,0,0,1,400.629,135.471Zm0,0" transform="translate(-384.379 -122.963)" fill="#fff"/>
    <path id="Path_8942" data-name="Path 8942" d="M6.666,20.008a1.717,1.717,0,0,1-.517-.078L1.135,18.26A1.682,1.682,0,0,1,0,16.675v-15A1.668,1.668,0,0,1,1.666.008a1.719,1.719,0,0,1,.517.078L7.2,1.756A1.682,1.682,0,0,1,8.333,3.341v15a1.668,1.668,0,0,1-1.667,1.667Zm-5-18.75a.418.418,0,0,0-.417.417v15a.433.433,0,0,0,.289.4L6.53,18.74a.453.453,0,0,0,.136.018.418.418,0,0,0,.417-.417v-15a.433.433,0,0,0-.289-.4L1.8,1.276a.452.452,0,0,0-.136-.018Zm0,0" transform="translate(0 0)" fill="#fff"/>
    <path id="Path_8943" data-name="Path 8943" d="M38.334,6.675a.625.625,0,0,1-.625-.625V2.3a1.043,1.043,0,0,0-1.042-1.042H27.293a.625.625,0,0,1,0-1.25h9.375A2.293,2.293,0,0,1,38.959,2.3V6.05A.625.625,0,0,1,38.334,6.675Zm0,0" transform="translate(-25.626)" fill="#fff"/>
    <path id="Path_8944" data-name="Path 8944" d="M185.291,284.007h-3.333a.625.625,0,0,1,0-1.25h3.333a1.043,1.043,0,0,0,1.042-1.042v-3.75a.625.625,0,0,1,1.25,0v3.75A2.293,2.293,0,0,1,185.291,284.007Zm0,0" transform="translate(-174.249 -266.499)" fill="#fff"/>
  </g>
</svg>
