<svg xmlns="http://www.w3.org/2000/svg" width="16.34" height="20.5" viewBox="0 0 16.34 20.5">
  <path id="noti" d="M68.933,15.916a3.107,3.107,0,0,1-.944-1.286A14.879,14.879,0,0,1,67,8.751c0-.008,0-.015,0-.023a5.675,5.675,0,0,0-3.34-5.147V2.228A2.229,2.229,0,0,0,61.439,0h-.184A2.229,2.229,0,0,0,59.03,2.228V3.582A5.675,5.675,0,0,0,55.69,8.751a14.879,14.879,0,0,1-.984,5.879,3.107,3.107,0,0,1-.944,1.286.57.57,0,0,0-.313.648.6.6,0,0,0,.588.458H58.33a3.017,3.017,0,0,0,6.033,0h4.295a.6.6,0,0,0,.588-.458A.57.57,0,0,0,68.933,15.916ZM60.2,2.228a1.054,1.054,0,0,1,1.052-1.054h.184a1.054,1.054,0,0,1,1.052,1.054V3.2a5.675,5.675,0,0,0-2.289,0V2.228Zm1.145,16.6a1.849,1.849,0,0,1-1.845-1.8h3.689A1.849,1.849,0,0,1,61.347,18.826Zm2.359-2.978H55.371a6.142,6.142,0,0,0,.307-.539,14.835,14.835,0,0,0,1.184-6.558,4.485,4.485,0,1,1,8.97,0c0,.007,0,.014,0,.022a14.805,14.805,0,0,0,1.184,6.535,6.147,6.147,0,0,0,.307.539Z" transform="translate(-53.177 0.25)" fill="#fff" stroke="#fff" stroke-width="0.5"/>
</svg>
