<svg xmlns="http://www.w3.org/2000/svg" width="31.022" height="31.022" viewBox="0 0 31.022 31.022">
  <g id="settings2" transform="translate(0)">
    <g id="Group_8951" data-name="Group 8951" transform="translate(0 10.47)">
      <g id="Group_8950" data-name="Group 8950" transform="translate(0)">
        <path id="Path_9254" data-name="Path 9254" d="M19.924,184.673c-.326-.2-.661-.393-1-.586a8.668,8.668,0,0,0,0-2.019c.336-.194.671-.391,1-.586a1.308,1.308,0,0,0,.53-1.612h0l-.713-1.722a1.308,1.308,0,0,0-1.514-.765c-.368.092-.744.189-1.118.289a8.67,8.67,0,0,0-1.428-1.427c.1-.375.2-.751.29-1.119a1.308,1.308,0,0,0-.765-1.514l-1.722-.713a1.308,1.308,0,0,0-1.612.53c-.2.326-.393.66-.586,1a8.673,8.673,0,0,0-2.019,0c-.194-.336-.391-.671-.586-1a1.308,1.308,0,0,0-1.612-.53l-1.722.713a1.308,1.308,0,0,0-.765,1.514c.092.369.189.745.289,1.118a8.665,8.665,0,0,0-1.427,1.428c-.375-.1-.751-.2-1.119-.29a1.308,1.308,0,0,0-1.514.765L.1,179.87a1.308,1.308,0,0,0,.53,1.612c.326.2.66.393,1,.586a8.675,8.675,0,0,0,0,2.019c-.336.194-.67.391-1,.586a1.308,1.308,0,0,0-.53,1.612l.713,1.722a1.308,1.308,0,0,0,1.514.765c.367-.091.743-.189,1.118-.289a8.675,8.675,0,0,0,1.428,1.427c-.1.375-.2.751-.289,1.119a1.308,1.308,0,0,0,.765,1.514l1.722.713a1.287,1.287,0,0,0,.493.1,1.308,1.308,0,0,0,1.119-.627c.194-.323.391-.658.586-1a8.684,8.684,0,0,0,2.019,0c.193.334.39.669.586,1a1.308,1.308,0,0,0,1.612.53l1.722-.713a1.308,1.308,0,0,0,.765-1.514c-.091-.366-.188-.741-.289-1.118a8.674,8.674,0,0,0,1.427-1.428c.374.1.75.2,1.118.289a1.308,1.308,0,0,0,1.514-.765l.713-1.722A1.308,1.308,0,0,0,19.924,184.673Zm-1.438,2.733c-.354-.089-.714-.182-1.073-.279a1.3,1.3,0,0,0-1.364.455,7.28,7.28,0,0,1-1.27,1.271,1.3,1.3,0,0,0-.454,1.364c.1.361.191.721.279,1.072l-1.583.656c-.188-.314-.377-.635-.561-.955a1.3,1.3,0,0,0-1.285-.643,7.289,7.289,0,0,1-1.8,0,1.3,1.3,0,0,0-1.286.643c-.186.324-.375.645-.561.956l-1.583-.656c.089-.353.182-.714.279-1.073a1.3,1.3,0,0,0-.455-1.364,7.282,7.282,0,0,1-1.271-1.27,1.3,1.3,0,0,0-1.364-.454c-.359.1-.719.19-1.072.279l-.656-1.583c.313-.187.634-.376.955-.561a1.3,1.3,0,0,0,.643-1.285,7.289,7.289,0,0,1,0-1.8,1.3,1.3,0,0,0-.643-1.286c-.321-.185-.642-.374-.956-.561l.656-1.583c.353.088.713.182,1.073.279a1.3,1.3,0,0,0,1.364-.455,7.278,7.278,0,0,1,1.27-1.271,1.3,1.3,0,0,0,.454-1.364c-.1-.358-.19-.718-.279-1.072l1.583-.656c.187.312.375.633.561.955a1.3,1.3,0,0,0,1.285.643,7.274,7.274,0,0,1,1.8,0,1.3,1.3,0,0,0,1.286-.643c.185-.321.374-.643.561-.956l1.583.656c-.089.353-.182.714-.279,1.073a1.3,1.3,0,0,0,.455,1.364,7.283,7.283,0,0,1,1.271,1.27,1.3,1.3,0,0,0,1.364.454c.359-.1.719-.19,1.072-.279l.656,1.583c-.312.187-.633.376-.955.561a1.3,1.3,0,0,0-.643,1.285,7.281,7.281,0,0,1,0,1.8,1.3,1.3,0,0,0,.643,1.286c.321.185.642.373.956.561Z" transform="translate(0 -172.801)"/>
      </g>
    </g>
    <g id="Group_8953" data-name="Group 8953" transform="translate(5.543 16.014)">
      <g id="Group_8952" data-name="Group 8952">
        <path id="Path_9255" data-name="Path 9255" d="M100.6,267.215h0a4.738,4.738,0,1,0-2.561,6.183A4.738,4.738,0,0,0,100.6,267.215Zm-3.093,4.9a3.344,3.344,0,1,1,1.81-4.369A3.322,3.322,0,0,1,97.506,272.115Z" transform="translate(-91.494 -264.293)"/>
      </g>
    </g>
    <g id="Group_8955" data-name="Group 8955" transform="translate(15.259)">
      <g id="Group_8954" data-name="Group 8954">
        <path id="Path_9256" data-name="Path 9256" d="M266.674,6.116c-.24-.036-.486-.071-.734-.1a6.461,6.461,0,0,0-.5-1.2c.152-.2.3-.4.446-.593a1.106,1.106,0,0,0-.108-1.431l-.958-.958a1.106,1.106,0,0,0-1.431-.108c-.2.145-.395.294-.592.446a6.462,6.462,0,0,0-1.2-.5c-.033-.248-.068-.494-.1-.734A1.106,1.106,0,0,0,260.406,0h-1.355a1.106,1.106,0,0,0-1.088.936c-.036.24-.071.486-.1.734a6.461,6.461,0,0,0-1.2.5c-.2-.151-.4-.3-.592-.446a1.106,1.106,0,0,0-1.431.108l-.958.958a1.106,1.106,0,0,0-.108,1.432c.144.2.294.394.446.592a6.47,6.47,0,0,0-.5,1.2c-.248.033-.494.068-.734.1a1.106,1.106,0,0,0-.936,1.088V8.559a1.106,1.106,0,0,0,.936,1.088c.24.036.486.071.734.1a6.469,6.469,0,0,0,.5,1.2c-.152.2-.3.4-.446.593a1.106,1.106,0,0,0,.108,1.431l.958.958a1.106,1.106,0,0,0,1.431.108c.2-.145.395-.294.592-.446a6.463,6.463,0,0,0,1.2.5c.033.248.068.494.1.734a1.106,1.106,0,0,0,1.088.936h1.355a1.106,1.106,0,0,0,1.088-.936c.036-.24.071-.486.1-.734a6.458,6.458,0,0,0,1.2-.5c.2.151.4.3.592.446a1.106,1.106,0,0,0,1.431-.108l.958-.958a1.106,1.106,0,0,0,.108-1.432c-.145-.2-.294-.394-.446-.592a6.471,6.471,0,0,0,.5-1.2c.248-.033.494-.068.734-.1a1.106,1.106,0,0,0,.936-1.088V7.2A1.107,1.107,0,0,0,266.674,6.116Zm-.383,2.254c-.218.032-.44.062-.663.091a1.1,1.1,0,0,0-.919.8,5.135,5.135,0,0,1-.485,1.171,1.1,1.1,0,0,0,.086,1.214c.137.178.272.356.4.533l-.691.691c-.177-.132-.356-.268-.533-.4a1.1,1.1,0,0,0-1.214-.086,5.137,5.137,0,0,1-1.171.485,1.1,1.1,0,0,0-.8.919c-.029.223-.06.445-.091.663h-.977c-.032-.218-.062-.44-.091-.662a1.1,1.1,0,0,0-.8-.919,5.135,5.135,0,0,1-1.171-.485,1.1,1.1,0,0,0-1.214.086c-.177.136-.356.272-.533.4l-.691-.691c.132-.177.267-.356.4-.533a1.1,1.1,0,0,0,.086-1.214,5.137,5.137,0,0,1-.485-1.171,1.1,1.1,0,0,0-.919-.8c-.223-.029-.445-.06-.663-.091V7.393c.218-.032.44-.062.662-.091a1.1,1.1,0,0,0,.919-.8,5.134,5.134,0,0,1,.485-1.171,1.1,1.1,0,0,0-.086-1.214c-.137-.178-.272-.357-.4-.533l.691-.691c.177.132.356.268.533.4a1.1,1.1,0,0,0,1.214.086,5.139,5.139,0,0,1,1.171-.485,1.1,1.1,0,0,0,.8-.919c.029-.223.06-.445.091-.662h.977c.032.218.062.44.091.662a1.1,1.1,0,0,0,.8.919,5.136,5.136,0,0,1,1.171.485A1.1,1.1,0,0,0,263.49,3.3c.177-.136.356-.272.533-.4l.691.691c-.132.177-.267.355-.4.533a1.1,1.1,0,0,0-.086,1.214,5.142,5.142,0,0,1,.485,1.171,1.1,1.1,0,0,0,.919.8c.223.029.445.06.663.091Z" transform="translate(-251.847)"/>
      </g>
    </g>
    <g id="Group_8957" data-name="Group 8957" transform="translate(20.329 5.07)">
      <g id="Group_8956" data-name="Group 8956">
        <path id="Path_9257" data-name="Path 9257" d="M338.334,83.675a2.811,2.811,0,1,0,2.811,2.811A2.815,2.815,0,0,0,338.334,83.675Zm0,4.373a1.562,1.562,0,1,1,1.562-1.562A1.564,1.564,0,0,1,338.334,88.048Z" transform="translate(-335.523 -83.675)"/>
      </g>
    </g>
  </g>
</svg>
