<svg xmlns="http://www.w3.org/2000/svg" width="15.584" height="20" viewBox="0 0 15.584 20">
  <g id="wishlist" transform="translate(-56.526)">
    <g id="Group_8750" data-name="Group 8750" transform="translate(56.526)">
      <g id="Group_8749" data-name="Group 8749">
        <path id="Path_8892" data-name="Path 8892" d="M69.074.679h-.7V.318a.318.318,0,0,0-.637,0V.679h-.722V.318a.318.318,0,0,0-.637,0V.679h-.722V.318a.318.318,0,1,0-.637,0V.679H64.3V.318a.318.318,0,1,0-.637,0V.679h-.722V.318a.318.318,0,1,0-.637,0V.679h-.722V.318a.318.318,0,0,0-.637,0V.679H60.22V.318a.318.318,0,1,0-.637,0V.679h-.722V.318a.318.318,0,0,0-.637,0V.679h-.7a1,1,0,0,0-1,1V16.964a1,1,0,0,0,1,1h6.454a.318.318,0,0,0,0-.637H57.524a.361.361,0,0,1-.361-.361V1.677a.361.361,0,0,1,.361-.361h.7v.361a.318.318,0,0,0,.637,0V1.316h.722v.361a.318.318,0,0,0,.637,0V1.316h.722v.361a.318.318,0,0,0,.637,0V1.316H62.3v.361a.318.318,0,0,0,.637,0V1.316h.722v.361a.318.318,0,1,0,.637,0V1.316h.722v.361a.318.318,0,1,0,.637,0V1.316h.722v.361a.318.318,0,0,0,.637,0V1.316h.722v.361a.318.318,0,0,0,.637,0V1.316h.7a.361.361,0,0,1,.361.361V11.868a.318.318,0,1,0,.637,0V1.677A1,1,0,0,0,69.074.679Z" transform="translate(-56.526)" fill="#fff"/>
      </g>
    </g>
    <g id="Group_8752" data-name="Group 8752" transform="translate(64.679 12.569)">
      <g id="Group_8751" data-name="Group 8751">
        <path id="Path_8893" data-name="Path 8893" d="M268.956,321.766a3.716,3.716,0,1,0,3.716,3.716A3.72,3.72,0,0,0,268.956,321.766Zm0,6.794a3.079,3.079,0,1,1,3.079-3.079A3.082,3.082,0,0,1,268.956,328.56Z" transform="translate(-265.24 -321.766)" fill="#fff"/>
      </g>
    </g>
    <g id="Group_8754" data-name="Group 8754" transform="translate(66.152 14.004)">
      <g id="Group_8753" data-name="Group 8753">
        <path id="Path_8894" data-name="Path 8894" d="M307.411,360.131a.319.319,0,0,0-.265-.218l-1.176-.139-.5-1.076a.319.319,0,0,0-.578,0l-.5,1.076-1.176.139a.318.318,0,0,0-.179.55l.87.8-.231,1.162a.318.318,0,0,0,.468.34l1.034-.579,1.034.579a.319.319,0,0,0,.468-.34l-.231-1.162.87-.8A.319.319,0,0,0,307.411,360.131Zm-1.52.79a.319.319,0,0,0-.1.3l.131.66-.587-.328a.318.318,0,0,0-.311,0l-.587.328.131-.66a.319.319,0,0,0-.1-.3l-.494-.457.668-.079a.319.319,0,0,0,.252-.183l.282-.611.282.611a.319.319,0,0,0,.252.183l.668.079Z" transform="translate(-302.941 -358.513)" fill="#fff"/>
      </g>
    </g>
    <g id="Group_8756" data-name="Group 8756" transform="translate(57.885 2.718)">
      <g id="Group_8755" data-name="Group 8755">
        <path id="Path_8895" data-name="Path 8895" d="M101.822,69.571H91.63a.318.318,0,1,0,0,.637h10.191a.318.318,0,1,0,0-.637Z" transform="translate(-91.312 -69.571)" fill="#fff"/>
      </g>
    </g>
    <g id="Group_8758" data-name="Group 8758" transform="translate(58.564 5.096)">
      <g id="Group_8757" data-name="Group 8757">
        <path id="Path_8896" data-name="Path 8896" d="M111.062,131.465a.318.318,0,0,0-.318.318.7.7,0,1,1-.7-.7.318.318,0,1,0,0-.637,1.338,1.338,0,1,0,1.338,1.338A.318.318,0,0,0,111.062,131.465Z" transform="translate(-108.705 -130.446)" fill="#fff"/>
      </g>
    </g>
    <g id="Group_8760" data-name="Group 8760" transform="translate(58.564 8.832)">
      <g id="Group_8759" data-name="Group 8759">
        <path id="Path_8897" data-name="Path 8897" d="M111.062,227.125a.318.318,0,0,0-.318.318.7.7,0,1,1-.7-.7.318.318,0,1,0,0-.637,1.338,1.338,0,1,0,1.338,1.338A.318.318,0,0,0,111.062,227.125Z" transform="translate(-108.705 -226.106)" fill="#fff"/>
      </g>
    </g>
    <g id="Group_8762" data-name="Group 8762" transform="translate(61.961 10.531)">
      <g id="Group_8761" data-name="Group 8761">
        <path id="Path_8898" data-name="Path 8898" d="M201.423,269.588h-5.435a.318.318,0,1,0,0,.637h5.435a.318.318,0,0,0,0-.637Z" transform="translate(-195.669 -269.588)" fill="#fff"/>
      </g>
    </g>
    <g id="Group_8764" data-name="Group 8764" transform="translate(61.961 9.172)">
      <g id="Group_8763" data-name="Group 8763">
        <path id="Path_8899" data-name="Path 8899" d="M200.064,234.8h-4.076a.318.318,0,0,0,0,.637h4.076a.318.318,0,1,0,0-.637Z" transform="translate(-195.669 -234.803)" fill="#fff"/>
      </g>
    </g>
    <g id="Group_8766" data-name="Group 8766" transform="translate(61.961 14.268)">
      <g id="Group_8765" data-name="Group 8765">
        <path id="Path_8900" data-name="Path 8900" d="M197.686,365.248h-1.7a.318.318,0,0,0,0,.637h1.7a.318.318,0,1,0,0-.637Z" transform="translate(-195.669 -365.248)" fill="#fff"/>
      </g>
    </g>
    <g id="Group_8768" data-name="Group 8768" transform="translate(61.961 12.909)">
      <g id="Group_8767" data-name="Group 8767">
        <path id="Path_8901" data-name="Path 8901" d="M198.364,330.463h-2.378a.318.318,0,0,0,0,.637h2.378a.318.318,0,1,0,0-.637Z" transform="translate(-195.668 -330.463)" fill="#fff"/>
      </g>
    </g>
    <g id="Group_8770" data-name="Group 8770" transform="translate(61.961 6.794)">
      <g id="Group_8769" data-name="Group 8769">
        <path id="Path_8902" data-name="Path 8902" d="M201.423,173.928h-5.435a.318.318,0,1,0,0,.637h5.435a.318.318,0,0,0,0-.637Z" transform="translate(-195.669 -173.928)" fill="#fff"/>
      </g>
    </g>
    <g id="Group_8772" data-name="Group 8772" transform="translate(61.961 5.435)">
      <g id="Group_8771" data-name="Group 8771">
        <path id="Path_8903" data-name="Path 8903" d="M200.064,139.142h-4.076a.318.318,0,0,0,0,.637h4.076a.318.318,0,1,0,0-.637Z" transform="translate(-195.669 -139.142)" fill="#fff"/>
      </g>
    </g>
    <g id="Group_8774" data-name="Group 8774" transform="translate(58.564 12.569)">
      <g id="Group_8773" data-name="Group 8773">
        <path id="Path_8904" data-name="Path 8904" d="M111.062,322.786a.318.318,0,0,0-.318.318.7.7,0,1,1-.7-.7.318.318,0,0,0,0-.637,1.338,1.338,0,1,0,1.338,1.338A.318.318,0,0,0,111.062,322.786Z" transform="translate(-108.705 -321.767)" fill="#fff"/>
      </g>
    </g>
  </g>
</svg>
