<svg id="category" xmlns="http://www.w3.org/2000/svg" xmlns:xlink="http://www.w3.org/1999/xlink" width="20" height="20" viewBox="0 0 20 20">
  <defs>
    <clipPath id="clip-path">
      <rect width="20" height="20" fill="none"/>
    </clipPath>
  </defs>
  <path id="ic" d="M2,20a2,2,0,0,1-2-2V2A2,2,0,0,1,2,0H18a2,2,0,0,1,2,2V18a2,2,0,0,1-2,2ZM1.667,2.667V17.333a1,1,0,0,0,1,1H17.333a1,1,0,0,0,1-1V2.667a1,1,0,0,0-1-1H2.667A1,1,0,0,0,1.667,2.667Zm2.5,14a.833.833,0,1,1,0-1.667H15.833a.833.833,0,1,1,0,1.667Zm10-4.166v-.833a.833.833,0,1,1,1.666,0V12.5a.833.833,0,1,1-1.666,0Zm-3.334,0V4.167a.833.833,0,1,1,1.667,0V12.5a.833.833,0,1,1-1.667,0ZM7.5,12.5v-5a.833.833,0,0,1,1.667,0v5a.833.833,0,0,1-1.667,0Zm-3.333,0V10a.833.833,0,1,1,1.666,0v2.5a.833.833,0,1,1-1.666,0Z" fill="#fff"/>
  <g id="bound_24" clip-path="url(#clip-path)">
    <rect id="bound_24-2" data-name="bound_24" width="20" height="20" fill="none"/>
    <text id="_24" data-name="24" transform="translate(10 14.222)" fill="none" font-size="12" font-family="Montserrat-Regular, Montserrat"><tspan x="-7.236" y="0">24</tspan></text>
  </g>
</svg>
