<svg xmlns="http://www.w3.org/2000/svg" width="20" height="20" viewBox="0 0 20 20">
  <g id="rent_item" transform="translate(0 0)">
    <path id="Path_8905" data-name="Path 8905" d="M40.391,451.992a.391.391,0,0,0-.391.391h0a.391.391,0,1,0,.391-.391Zm0,0" transform="translate(-38.437 -434.336)" fill="#fff"/>
    <path id="Path_8906" data-name="Path 8906" d="M69.588,0H66.463a.391.391,0,0,0-.391.391V.8l-.521,0h0a.391.391,0,0,0,0,.781l.526,0V5.632c-1.023.644-1.946.273-2.92-.119a4.079,4.079,0,0,0-1.969-.443c-.209.026-.773.108-1.371.195-.566.082-1.151.167-1.353.192a.387.387,0,0,1-.287-.08.4.4,0,0,1-.152-.267c-.009-.069-.031-.253.458-.48A19.644,19.644,0,0,1,61.508,3.5a.391.391,0,0,0-.2-.755A20.446,20.446,0,0,0,58.15,3.921a1.724,1.724,0,0,0-.74.579L53.494,5.568c-.412.1-.623-.06-.684-.249a.435.435,0,0,1,.307-.54c.307-.117,1.038-.439,1.964-.846,1.227-.54,2.754-1.212,3.972-1.706a6.8,6.8,0,0,1,3.369-.67h0a.391.391,0,0,0,0-.781,7.56,7.56,0,0,0-3.665.728C57.531,2,56,2.676,54.766,3.218c-.882.388-1.643.723-1.929.832h0a1.209,1.209,0,0,0-.767,1.507,1.269,1.269,0,0,0,1.623.766l.007,0,3.575-.975a1.179,1.179,0,0,0,1.286.885c.209-.026.771-.108,1.367-.194.567-.082,1.154-.168,1.356-.193a3.5,3.5,0,0,1,1.58.392,5.538,5.538,0,0,0,2.055.525,2.816,2.816,0,0,0,1.158-.246V6.64a.391.391,0,0,0,.391.391h3.125a.391.391,0,0,0,.391-.391V.39A.391.391,0,0,0,69.588,0ZM69.2,6.25H66.853V1.194h0V.781H69.2Zm0,0" transform="translate(-49.978)" fill="#fff"/>
    <path id="Path_8907" data-name="Path 8907" d="M452.391,40.785a.391.391,0,0,0,.391-.391h0a.391.391,0,1,0-.391.391Zm0,0" transform="translate(-434.344 -38.441)" fill="#fff"/>
    <path id="Path_8908" data-name="Path 8908" d="M118.734,191.469a2.733,2.733,0,0,0,2.242-1.172h1.443a.391.391,0,0,0,.276-.114l.667-.667h.458l.667.667a.391.391,0,0,0,.276.114h.612a.391.391,0,0,0,.276-.114l1.172-1.172a.391.391,0,0,0,.114-.276v-1.172a.391.391,0,0,0-.391-.391h-5.57a2.734,2.734,0,1,0-2.242,4.3Zm7.422-3.516v.62l-.943.943h-.288l-.667-.667a.391.391,0,0,0-.276-.114H123.2a.391.391,0,0,0-.276.114l-.667.667h-.9a2.727,2.727,0,0,0,0-1.562Zm-7.422-1.172a1.953,1.953,0,1,1-1.953,1.953A1.955,1.955,0,0,1,118.734,186.781Zm0,0" transform="translate(-111.468 -178.735)" fill="#fff"/>
    <path id="Path_8909" data-name="Path 8909" d="M156.391,246.777a.391.391,0,1,0-.391-.391h0A.39.39,0,0,0,156.391,246.777Zm0,0" transform="translate(-149.906 -236.387)" fill="#fff"/>
    <path id="Path_8910" data-name="Path 8910" d="M348.985,20.887h0a.391.391,0,1,0-.391-.391A.391.391,0,0,0,348.985,20.887Zm0,0" transform="translate(-334.977 -19.32)" fill="#fff"/>
    <path id="Path_8911" data-name="Path 8911" d="M16.289,332.71l-.007,0-3.575.975a1.179,1.179,0,0,0-1.286-.885c-.209.026-.771.108-1.367.194-.567.082-1.154.168-1.356.193a3.507,3.507,0,0,1-1.58-.392,3.931,3.931,0,0,0-3.212-.279v-.123A.391.391,0,0,0,3.516,332H.391a.391.391,0,0,0-.391.391v6.25a.391.391,0,0,0,.391.391H3.516a.391.391,0,0,0,.391-.391v-.408l.521,0h0a.391.391,0,0,0,0-.781l-.526,0V333.4c1.023-.644,1.946-.273,2.92.119a4.076,4.076,0,0,0,1.969.443c.209-.026.773-.108,1.371-.195.566-.082,1.151-.167,1.353-.192a.387.387,0,0,1,.287.08.4.4,0,0,1,.152.267c.009.069.031.253-.458.48a19.628,19.628,0,0,1-3.03,1.129.391.391,0,1,0,.2.755,20.453,20.453,0,0,0,3.158-1.175,1.726,1.726,0,0,0,.74-.579l3.916-1.068c.412-.1.623.06.684.249a.435.435,0,0,1-.307.54c-.306.117-1.038.439-1.964.846-1.227.54-2.754,1.212-3.972,1.706a6.8,6.8,0,0,1-3.369.67h0a.391.391,0,0,0,0,.781h.094a7.5,7.5,0,0,0,3.571-.728c1.228-.5,2.761-1.173,3.993-1.715.882-.388,1.643-.723,1.929-.832h0a1.209,1.209,0,0,0,.767-1.507,1.269,1.269,0,0,0-1.623-.766ZM.781,338.254v-5.469H3.125v5.056h0v.412Zm0,0" transform="translate(0 -319.035)" fill="#fff"/>
    <path id="Path_8912" data-name="Path 8912" d="M143.8,471.895h0a.391.391,0,1,0,.391.391A.391.391,0,0,0,143.8,471.895Zm0,0" transform="translate(-137.804 -453.462)" fill="#fff"/>
  </g>
</svg>
