<svg xmlns="http://www.w3.org/2000/svg" width="15.382" height="17.248" viewBox="0 0 15.382 17.248">
  <g id="location" transform="translate(-37.6 -11)" opacity="0.7">
    <g id="Group_8743" data-name="Group 8743" transform="translate(37.6 11)">
      <path id="Path_8882" data-name="Path 8882" d="M47.326,23.872c1.454-2.411,3.291-5.8,3.291-7.543a5.329,5.329,0,0,0-10.658,0c0,1.742,1.837,5.132,3.291,7.543-1.725.13-5.649.6-5.649,2.151,0,1.528,3.985,2.225,7.691,2.225s7.691-.7,7.691-2.225C52.979,24.471,49.05,24,47.326,23.872Zm-6.632-7.543a4.6,4.6,0,1,1,9.191,0c0,2.214-3.527,7.768-4.6,9.4C44.217,24.1,40.694,18.543,40.694,16.329Zm4.594,11.183c-4.5,0-6.955-.986-6.955-1.492,0-.391,1.619-1.232,5.35-1.447.7,1.13,1.232,1.929,1.3,2.024a.376.376,0,0,0,.609,0c.074-.088.6-.894,1.3-2.024,3.731.215,5.35,1.052,5.35,1.447C52.243,26.53,49.79,27.512,45.288,27.512Z" transform="translate(-37.6 -11)" fill="#00a03e"/>
      <path id="Path_8883" data-name="Path 8883" d="M194.739,98.82a2.32,2.32,0,1,0-2.32,2.32A2.319,2.319,0,0,0,194.739,98.82Zm-3.907,0a1.587,1.587,0,1,1,1.587,1.587A1.588,1.588,0,0,1,190.832,98.82Z" transform="translate(-184.732 -93.49)" fill="#00a03e"/>
    </g>
  </g>
</svg>
